<mxfile host="app.diagrams.net" modified="2021-09-13T01:01:00.776Z" agent="5.0 (Macintosh; Intel Mac OS X 10_15_7) AppleWebKit/537.36 (KHTML, like Gecko) Chrome/93.0.4577.63 Safari/537.36" etag="8DrutXrzVJDqgbWDSU-1" version="15.2.1" type="github">
  <diagram id="vNstaERwwWh0DBgsWRbl" name="Page-1">
    <mxGraphModel dx="946" dy="532" grid="1" gridSize="10" guides="1" tooltips="1" connect="1" arrows="1" fold="1" page="1" pageScale="1" pageWidth="827" pageHeight="1169" math="0" shadow="0">
      <root>
        <mxCell id="0" />
        <mxCell id="1" parent="0" />
        <mxCell id="bZDILimtqjILJS-sSr30-5" value="" style="edgeStyle=orthogonalEdgeStyle;rounded=0;orthogonalLoop=1;jettySize=auto;html=1;" edge="1" parent="1" source="bZDILimtqjILJS-sSr30-1" target="bZDILimtqjILJS-sSr30-4">
          <mxGeometry relative="1" as="geometry" />
        </mxCell>
        <mxCell id="bZDILimtqjILJS-sSr30-10" value="&lt;font style=&quot;font-size: 14px&quot;&gt;1&lt;/font&gt;" style="edgeLabel;html=1;align=center;verticalAlign=middle;resizable=0;points=[];" vertex="1" connectable="0" parent="bZDILimtqjILJS-sSr30-5">
          <mxGeometry x="-0.1167" y="-1" relative="1" as="geometry">
            <mxPoint as="offset" />
          </mxGeometry>
        </mxCell>
        <mxCell id="bZDILimtqjILJS-sSr30-7" value="" style="edgeStyle=orthogonalEdgeStyle;rounded=0;orthogonalLoop=1;jettySize=auto;html=1;" edge="1" parent="1" source="bZDILimtqjILJS-sSr30-1" target="bZDILimtqjILJS-sSr30-6">
          <mxGeometry relative="1" as="geometry" />
        </mxCell>
        <mxCell id="bZDILimtqjILJS-sSr30-12" value="&lt;font style=&quot;font-size: 14px&quot;&gt;5&lt;/font&gt;" style="edgeLabel;html=1;align=center;verticalAlign=middle;resizable=0;points=[];" vertex="1" connectable="0" parent="bZDILimtqjILJS-sSr30-7">
          <mxGeometry x="-0.1852" y="2" relative="1" as="geometry">
            <mxPoint as="offset" />
          </mxGeometry>
        </mxCell>
        <mxCell id="bZDILimtqjILJS-sSr30-9" value="" style="edgeStyle=orthogonalEdgeStyle;rounded=0;orthogonalLoop=1;jettySize=auto;html=1;" edge="1" parent="1" source="bZDILimtqjILJS-sSr30-1" target="bZDILimtqjILJS-sSr30-8">
          <mxGeometry relative="1" as="geometry" />
        </mxCell>
        <mxCell id="bZDILimtqjILJS-sSr30-11" value="&lt;font style=&quot;font-size: 14px&quot;&gt;2&lt;/font&gt;" style="edgeLabel;html=1;align=center;verticalAlign=middle;resizable=0;points=[];" vertex="1" connectable="0" parent="bZDILimtqjILJS-sSr30-9">
          <mxGeometry x="-0.075" y="1" relative="1" as="geometry">
            <mxPoint as="offset" />
          </mxGeometry>
        </mxCell>
        <mxCell id="bZDILimtqjILJS-sSr30-1" value="&lt;font style=&quot;font-size: 14px&quot;&gt;5&lt;br&gt;[1,2,5]&lt;/font&gt;" style="ellipse;whiteSpace=wrap;html=1;aspect=fixed;" vertex="1" parent="1">
          <mxGeometry x="380" y="70" width="80" height="80" as="geometry" />
        </mxCell>
        <mxCell id="bZDILimtqjILJS-sSr30-4" value="&lt;font style=&quot;font-size: 14px&quot;&gt;5&lt;br&gt;[1,2,5]&lt;/font&gt;" style="ellipse;whiteSpace=wrap;html=1;aspect=fixed;" vertex="1" parent="1">
          <mxGeometry x="170" y="180" width="80" height="80" as="geometry" />
        </mxCell>
        <mxCell id="bZDILimtqjILJS-sSr30-6" value="&lt;font style=&quot;font-size: 14px&quot;&gt;5&lt;br&gt;[1,2,5]&lt;/font&gt;" style="ellipse;whiteSpace=wrap;html=1;aspect=fixed;" vertex="1" parent="1">
          <mxGeometry x="630" y="170" width="80" height="80" as="geometry" />
        </mxCell>
        <mxCell id="bZDILimtqjILJS-sSr30-8" value="&lt;font style=&quot;font-size: 14px&quot;&gt;5&lt;br&gt;[1,2,5]&lt;/font&gt;" style="ellipse;whiteSpace=wrap;html=1;aspect=fixed;" vertex="1" parent="1">
          <mxGeometry x="380" y="230" width="80" height="80" as="geometry" />
        </mxCell>
      </root>
    </mxGraphModel>
  </diagram>
</mxfile>
